<svg id="Layer_1" data-name="Layer 1" xmlns="http://www.w3.org/2000/svg" viewBox="0 0 387.43 389.68"><defs><style>.cls-1{fill:#fff;}</style></defs><path class="cls-1" d="M103.56,155.7c7.16,8.45,15.78,14.23,27,15.65a35.77,35.77,0,0,0,19.5-3c8.42-3.77,14.86-9.92,19.88-17.5A68.53,68.53,0,0,0,181,118c.37-4.69.39-9.4.59-14.64-.59-7.32-1-15.17-1.9-23a163.09,163.09,0,0,0-2.78-17A58.28,58.28,0,0,0,170.87,47a27.83,27.83,0,0,0-8.22-9.54c-5.85-4-12.22-4.24-18.76-2.41a50.51,50.51,0,0,0-15.86,8,97.33,97.33,0,0,0-19.44,18.86A101.63,101.63,0,0,0,92.07,91.29a59.17,59.17,0,0,0-3.63,19,74.35,74.35,0,0,0,4,25.4A61.81,61.81,0,0,0,103.56,155.7Zm51.11-93a5.14,5.14,0,0,0-1,.78h0A5.14,5.14,0,0,1,154.67,62.72ZM94,116.08h0l-.09-.14Z"/><path class="cls-1" d="M211.42,139.43c3.78,9.2,9.17,17.28,17.07,23.53a38.39,38.39,0,0,0,22.06,8.66,35.78,35.78,0,0,0,20.42-5c11.45-6.68,18.58-16.91,23.25-29.06.21-.55.41-1.1.61-1.66h0a66.46,66.46,0,0,0,2-7c5.63-23.07-1.33-37.19-1.33-37.19h0a89.75,89.75,0,0,0-7.61-16.55,107,107,0,0,0-20.94-26c-7.41-6.61-15.39-12.32-25.32-14.6-6.51-1.49-12.57-.65-17.93,3.61-6.26,5-9.27,12-11.61,19.25-1.23,3.85-2.05,7.84-2.89,11.8-.64,3-1.15,6.1-1.5,9.17-.45,4.09-.75,8.21-1,12.32-.68,10.17-1.33,20.33,0,30.51A73,73,0,0,0,211.42,139.43Zm57.64-11s0,.08,0,.13,0-.09,0-.13ZM263.74,140a1.34,1.34,0,0,0,0,.2,1.34,1.34,0,0,1,0-.2l-.37-.05Z"/><path class="cls-1" d="M364.77,191.11c-.19-2.81-.21-5.64-.63-8.41-.8-5.29-1.59-10.61-2.87-15.8a79.55,79.55,0,0,0-4.08-11.41,47.6,47.6,0,0,0-12.37-17.93,21.38,21.38,0,0,0-12.28-5.62c-5.86-.53-11,1.6-15.72,4.81-6.72,4.56-11.92,10.6-16.61,17.11A155,155,0,0,0,287,176.31c-4.43,9-7.85,18.18-8.66,28.27-.75,9.48.27,18.62,4.39,27.28,5.19,10.91,13.38,18,25.57,19.91,7.36,1.16,14.33-.19,21.08-3.11A52.73,52.73,0,0,0,340,242.24a55.66,55.66,0,0,0,6.79-6h0c14.81-15.4,16.59-31.3,16.59-31.3h0A75.91,75.91,0,0,0,364.77,191.11Zm-26.83-32.2h0c0-.1.07-.2.11-.31C338,158.71,338,158.81,337.94,158.91Z"/><path class="cls-1" d="M86.75,249.72c8.87-3.73,14.82-10.47,18.57-19.17a50.74,50.74,0,0,0,4-20.34h0c.5-7.7-1.49-15.61-3.64-21.66-.16-.47-.32-.94-.51-1.4A72.29,72.29,0,0,0,101,178h0c-.85-1.83-1.71-3.65-2.61-5.45-5.09-10.24-11.17-19.85-19-28.2-5-5.34-10.63-9.93-18-11.87a18.45,18.45,0,0,0-12,.76c-5.62,2.28-9.7,6.42-13.18,11.22a60.82,60.82,0,0,0-8.45,16.8c-.46,1.38-.87,2.79-1.26,4.19h0q-.78,2.73-1.37,5.24c-.34,1.32-.67,2.64-1,4,0,.13-.09.37,0,.41l.11.09c-2.66,13.84-1.21,21.7-1.21,21.7h0c.05.88.11,1.75.17,2.63a43.8,43.8,0,0,0,3.06,13.81,99.71,99.71,0,0,0,5.65,11.51,58.31,58.31,0,0,0,17.44,19,44.61,44.61,0,0,0,19.58,8A33,33,0,0,0,86.75,249.72Z"/><path class="cls-1" d="M312,289.91c-5-22.6-19.72-34.28-19.72-34.28h0a74.14,74.14,0,0,0-6.46-5.78c-4.4-3.49-9-6.72-13.3-10.34A78.16,78.16,0,0,1,254.89,218c-2.22-3.93-4.19-8-6.51-11.87a64.43,64.43,0,0,0-29.47-25.15,65.79,65.79,0,0,0-43.45-2.5,64.73,64.73,0,0,0-36,26.85c-4.71,7.55-9.34,15.11-15,22a143.44,143.44,0,0,1-20.17,20.24,94.68,94.68,0,0,0-17.79,18.26,72.54,72.54,0,0,0-7.42,12.9h0a58.12,58.12,0,0,0-5.11,24l-.19.13c.07.16.13.33.2.49a45.19,45.19,0,0,0,.35,4.86h0c0,.07,0,.14,0,.2a43.24,43.24,0,0,0,5.73,16.81l0,.05a49.82,49.82,0,0,0,7.45,10.15c.44.45.87.9,1.32,1.34h0s16.8,19.42,50.94,19h0A77.11,77.11,0,0,0,158.76,354c5-1.13,10.05-2.34,15-3.84a67,67,0,0,1,13.84-3.07,60.35,60.35,0,0,1,24.82,2.67A114.59,114.59,0,0,0,234.63,355a89.87,89.87,0,0,0,30.52-1.16,83.74,83.74,0,0,0,13.22-4.16,56.61,56.61,0,0,0,24.84-18.37A48.36,48.36,0,0,0,313,307.2a50,50,0,0,0-1-17.28Zm-199.2-11.62a3.49,3.49,0,0,1-.1.38h0A3.49,3.49,0,0,0,112.78,278.29Z"/></svg>